<svg xmlns="http://www.w3.org/2000/svg" viewBox="0 0 512.004 512.004" style="enable-background:new 0 0 512.004 512.004" xml:space="preserve"><path d="M511.896 255.912c0-39.951-30.386-72.93-69.259-77.062 11.114-13.466 17.799-30.716 17.799-49.499 0-42.941-34.934-77.877-77.877-77.877-18.787 0-36.043 6.687-49.51 17.807C328.927 30.398 295.941 0 255.983 0c-39.949 0-72.928 30.383-77.061 69.253-13.462-11.103-30.704-17.78-49.476-17.78-42.941 0-77.877 34.936-77.877 77.877 0 18.782 6.685 36.034 17.799 49.499C30.495 182.98.109 215.96.109 255.911c0 39.997 30.458 73.013 69.397 77.08-11.194 13.49-17.935 30.8-17.935 49.659 0 42.941 34.935 77.876 77.877 77.876 18.787 0 36.043-6.687 49.51-17.807 4.121 38.883 37.107 69.279 77.065 69.279 39.949 0 72.928-30.383 77.061-69.253 13.462 11.103 30.704 17.779 49.476 17.779 42.941 0 77.877-34.935 77.877-77.876 0-18.859-6.741-36.169-17.935-49.659 38.936-4.064 69.394-37.08 69.394-77.077zM382.558 70.215c32.607 0 59.135 26.527 59.135 59.135 0 32.607-26.527 59.133-59.135 59.133s-59.135-26.527-59.135-59.133c.001-32.607 26.528-59.135 59.135-59.135zm-14.073 226.423a77.858 77.858 0 0 0 6.115 8.539 77.31 77.31 0 0 0-10.44 1.812 118.868 118.868 0 0 0 4.325-10.351zm-4.233-91.605a77.38 77.38 0 0 0 10.221 1.774 77.936 77.936 0 0 0-5.989 8.379 118.149 118.149 0 0 0-4.232-10.153zm-108.269 151.78c-55.391 0-100.484-44.868-100.883-100.168.003-.245.019-.487.019-.733s-.016-.489-.019-.733c.397-55.299 45.49-100.167 100.883-100.167 55.637 0 100.901 45.264 100.901 100.9 0 55.637-45.264 100.901-100.901 100.901zm50.936 7.341a77.608 77.608 0 0 0-1.817 10.404 77.976 77.976 0 0 0-8.545-6.093 118.365 118.365 0 0 0 10.362-4.311zm-91.461 4.331a78.006 78.006 0 0 0-8.553 6.101 77.295 77.295 0 0 0-1.815-10.412 118.664 118.664 0 0 0 10.368 4.311zm-10.322-220.856a77.385 77.385 0 0 0 1.767-10.187 78.053 78.053 0 0 0 8.355 5.97 117.917 117.917 0 0 0-10.122 4.217zm91.574-4.219a77.86 77.86 0 0 0 8.389-5.998c.36 3.486.968 6.898 1.774 10.235a119.817 119.817 0 0 0-10.163-4.237zM255.983 18.742c32.402 0 58.764 26.362 58.764 58.762 0 32.403-26.362 58.764-58.764 58.764s-58.764-26.362-58.764-58.764c.001-32.4 26.362-58.762 58.764-58.762zM129.445 70.215c32.607 0 59.135 26.527 59.135 59.135 0 32.607-26.527 59.133-59.135 59.133S70.31 161.956 70.31 129.35c.002-32.607 26.529-59.135 59.135-59.135zm14.05 226.46a118.583 118.583 0 0 0 4.307 10.303 77.286 77.286 0 0 0-10.398-1.802 77.632 77.632 0 0 0 6.091-8.501zm-5.964-89.868a77.382 77.382 0 0 0 10.178-1.764 118.68 118.68 0 0 0-4.215 10.106 78.01 78.01 0 0 0-5.963-8.342zM18.85 255.912c0-32.402 26.362-58.762 58.764-58.762 32.074 0 58.213 25.834 58.739 57.785-.003.326-.012.651-.012.977s.01.651.012.977c-.526 31.952-26.664 57.786-58.739 57.786-32.402 0-58.764-26.361-58.764-58.763zm110.595 185.872c-32.607 0-59.135-26.527-59.135-59.133 0-32.608 26.527-59.135 59.135-59.135s59.135 26.527 59.135 59.135c0 32.606-26.527 59.133-59.135 59.133zm126.576 51.474c-32.402 0-58.764-26.362-58.764-58.762 0-32.403 26.362-58.764 58.764-58.764s58.763 26.362 58.763 58.764c0 32.4-26.361 58.762-58.763 58.762zm126.537-51.474c-32.607 0-59.135-26.527-59.135-59.133 0-32.608 26.527-59.135 59.135-59.135s59.135 26.527 59.135 59.135c-.001 32.606-26.528 59.133-59.135 59.133zm51.832-127.109c-32.402 0-58.764-26.362-58.764-58.764s26.362-58.762 58.764-58.762 58.764 26.362 58.764 58.762c-.001 32.403-26.362 58.764-58.764 58.764z"/><circle cx="151.228" cy="9.371" r="9.371"/><circle cx="359.818" cy="9.371" r="9.371"/><circle cx="495.263" cy="156.973" r="9.371"/><circle cx="15.581" cy="156.973" r="9.371"/><circle cx="501.96" cy="357.467" r="9.371"/><circle cx="15.581" cy="357.467" r="9.371"/><circle cx="357.531" cy="502.633" r="9.371"/><circle cx="156.488" cy="502.633" r="9.371"/></svg>